<svg width="320" height="361" viewBox="0 0 320 361" fill="none" xmlns="http://www.w3.org/2000/svg">
<g clip-path="url(#clip0_25_4879)">
<path d="M464.665 239.004H290.917C279.081 239.004 267.73 243.705 259.361 252.074C250.992 260.443 246.291 271.794 246.291 283.63V358.004H260.291V316.964C260.291 305.129 264.992 293.778 273.361 285.409C281.73 277.04 293.081 272.338 304.917 272.338H450.665C462.5 272.338 473.851 277.04 482.22 285.409C490.589 293.778 495.291 305.129 495.291 316.964V358.004H509.291V283.63C509.291 271.794 504.589 260.443 496.22 252.074C487.851 243.705 476.5 239.004 464.665 239.004Z" fill="#F2F2F2"/>
<path d="M262.657 245.975L270.653 238.365L245.106 203.905L233.306 215.136L262.657 245.975Z" fill="#FFB6B6"/>
<path d="M254.836 242.982L266.884 230.062L272.093 235.535L292.219 232.364C293.213 232.207 294.231 232.372 295.125 232.835C296.018 233.298 296.74 234.034 297.186 234.937C297.631 235.839 297.777 236.86 297.601 237.851C297.425 238.842 296.936 239.75 296.207 240.444L281 254.918L273.227 251.999L277.356 258.387L271.622 263.844L254.836 242.982Z" fill="#2F2E41"/>
<path d="M261.291 220.004L250.291 235.004C240.981 230.044 211.267 210.362 188.507 200.052C173.797 193.372 162.447 188.292 162.447 188.292C162.447 188.292 160.917 190.462 158.477 193.872C149.547 206.372 128.457 235.462 126.447 234.382C123.897 233.012 121.007 235.462 121.367 240.482C121.627 244.142 115.437 246.812 112.057 248.002C110.787 248.442 109.917 248.682 109.917 248.682C109.337 249.052 108.757 249.422 108.187 249.772C89.6766 261.082 67.9866 257.892 53.0866 245.772C47.7497 241.467 43.3969 236.068 40.3214 229.939C37.2458 223.811 35.5188 217.094 35.2566 210.242L33.9266 179.242L78.9266 177.242L86.9366 192.452L101.147 180.872L132.257 155.522L143.617 146.262C143.617 146.262 143.317 146.222 143.677 144.862C145.1 144.091 146.589 143.448 148.127 142.942C148.387 142.852 148.647 142.772 148.907 142.702C163.557 138.382 174.667 149.622 174.667 149.622C174.667 149.622 242.621 195.574 245.291 196.004C247.961 196.444 249.497 200.732 249.817 201.752C250.127 202.712 254.381 208.134 256.291 208.004C262.251 207.614 261.291 220.004 261.291 220.004Z" fill="#2F2E41"/>
<path d="M126.388 127.165C125.134 127.581 123.987 128.269 123.029 129.18C122.071 130.09 121.327 131.201 120.848 132.432L79.5837 132.205L57.6335 101.844L41.3174 109.067L67.8729 157.182L126.004 144.214L125.97 144.092C127.317 144.616 128.769 144.807 130.205 144.651C131.641 144.494 133.018 143.995 134.22 143.194C135.422 142.393 136.414 141.314 137.111 140.049C137.809 138.784 138.192 137.37 138.227 135.926C138.263 134.482 137.95 133.05 137.316 131.753C136.682 130.455 135.745 129.329 134.583 128.47C133.422 127.61 132.071 127.043 130.645 126.816C129.218 126.589 127.758 126.709 126.388 127.165Z" fill="#FFB6B6"/>
<path d="M49.924 81.1546L49.0672 81.2801C44.5915 81.9309 40.5486 84.3082 37.8039 87.9029C35.0593 91.4976 33.8311 96.024 34.3824 100.513C35.0452 105.822 35.431 110.574 34.8506 111.519C33.4222 113.845 32.876 115.794 35.6784 116.085C38.4808 116.377 32.64 114.661 41.5684 116.154C50.4969 117.647 48.9177 112.903 56.1911 112.589C63.4645 112.276 68.3721 114.153 70.663 110.054C72.9539 105.956 79.3424 105.788 75.8337 101.76C72.3249 97.7334 71.3748 101.212 68.5323 92.6722C68.5039 92.5868 68.4754 92.5018 68.4468 92.4172C67.1636 88.6702 64.6078 85.4915 61.2236 83.4338C57.8395 81.3761 53.8412 80.5696 49.924 81.1546Z" fill="#6C63FF"/>
<path d="M25.8328 70.5542C24.7716 71.5885 23.6424 72.5507 22.4528 73.4342C22.1028 73.7042 21.7528 73.9542 21.4028 74.1842C11.2528 81.0542 1.23275 78.1142 -6.57725 70.9442C-18.6472 59.8442 -25.4272 38.6142 -19.1672 27.8342C-5.14724 10.7342 13.0528 14.4042 24.1128 26.0242C34.8528 37.2942 38.8728 56.0542 25.8328 70.5542Z" fill="#F2F2F2"/>
<path d="M69.8967 84.7923C69.0367 84.2423 68.1767 83.7123 67.2967 83.2023C66.9067 82.6723 66.5067 82.1523 66.0967 81.6423L69.8967 84.7923Z" fill="#F2F2F2"/>
<path d="M45.3766 39.4323C58.694 49.5629 73.525 57.6256 76.3206 68.7744C76.3206 68.7744 74.646 51.2572 82.4574 54.5775C95.5823 60.1563 91.1415 29.8164 87.4609 24.8552C81.3267 16.5865 60.6417 11.8882 60.6417 11.8882L45.9678 19.9435L45.3766 39.4323Z" fill="#EF913C"/>
<path d="M106.704 355.843C106.977 356.636 107.494 357.323 108.181 357.804C108.868 358.285 109.689 358.536 110.528 358.521L126.912 358.1C127.757 358.083 128.574 357.794 129.241 357.275C129.908 356.755 130.388 356.034 130.612 355.219L132.93 330.427C133.753 330.799 134.648 330.983 135.551 330.965C136.336 330.946 137.11 330.773 137.828 330.455C138.545 330.137 139.194 329.681 139.735 329.112C140.276 328.543 140.7 327.873 140.983 327.141C141.265 326.408 141.4 325.627 141.381 324.842C141.361 324.057 141.187 323.284 140.868 322.566C140.549 321.848 140.092 321.201 139.523 320.66C138.954 320.119 138.283 319.696 137.55 319.414C136.817 319.133 136.036 318.998 135.251 319.019C134.89 319.017 134.53 319.055 134.177 319.13C133.794 318.715 133.327 318.385 132.808 318.161C132.289 317.937 131.728 317.824 131.163 317.83L105.96 318.48C105.751 318.488 105.543 318.514 105.338 318.558C104.786 318.661 104.262 318.881 103.801 319.204C103.341 319.526 102.955 319.944 102.669 320.428C102.384 320.912 102.205 321.452 102.146 322.011C102.086 322.57 102.147 323.136 102.325 323.669L106.704 355.843ZM133.405 328.743L135.055 322.835C135.243 322.153 135.247 321.433 135.068 320.748C135.148 320.748 135.219 320.71 135.299 320.71C136.43 320.687 137.524 321.113 138.341 321.895C139.159 322.677 139.632 323.752 139.659 324.883C139.685 326.014 139.262 327.109 138.483 327.929C137.703 328.749 136.63 329.226 135.499 329.255C134.767 329.278 134.044 329.101 133.405 328.743Z" fill="#CCCCCC"/>
<path d="M105.338 318.558C105.875 321.628 111.912 323.786 119.171 323.411C125.846 323.103 131.304 320.76 132.304 317.982C131.933 317.872 131.549 317.821 131.163 317.83L105.96 318.48C105.751 318.488 105.543 318.514 105.338 318.558Z" fill="white"/>
<path d="M68.5663 51.7259C81.2688 51.7259 91.5663 41.4284 91.5663 28.7259C91.5663 16.0233 81.2688 5.72589 68.5663 5.72589C55.8637 5.72589 45.5663 16.0233 45.5663 28.7259C45.5663 41.4284 55.8637 51.7259 68.5663 51.7259Z" fill="#FFB6B6"/>
<path d="M60.283 19.9256L59.3979 23.813L74.8696 27.3352C74.8834 26.549 75.0595 25.7741 75.3869 25.0592C75.7143 24.3442 76.1859 23.7047 76.7722 23.1807C76.4385 24.7049 76.4765 26.2871 76.8832 27.7936C85.2272 32.4757 84.7477 34.1345 91.4914 32.9405C92.405 33.1485 93.3638 32.985 94.157 32.4861C94.9501 31.9871 95.5125 31.1935 95.7205 30.2799C98.4338 18.3614 99.3254 6.17983 87.4653 3.22145C84.5825 2.50064 81.5847 2.36265 78.6479 2.81556C75.711 3.26847 72.8941 4.30315 70.3624 5.85896C67.8307 7.41477 65.635 9.46041 63.9042 11.8759C62.1734 14.2914 60.9422 17.0281 60.283 19.9256Z" fill="#F6C649"/>
<path d="M177.731 164.533C177.676 164.467 177.613 164.409 177.543 164.36C177.371 164.161 177.162 163.997 176.927 163.878L175.244 162.977L164.07 150.572C163.423 150.235 162.671 150.163 161.972 150.371L161.943 150.38L157.157 151.86L153.04 153.138L147.29 154.92L108.124 167.048L82.3793 175.019C81.6833 175.239 81.1016 175.724 80.7594 176.369C80.4173 177.014 80.342 177.767 80.5498 178.467C80.6708 178.852 80.8711 179.208 81.1376 179.511L81.9569 180.423L83.6752 182.337L87.6564 190.588L88.761 191.821C89.1129 192.213 89.5694 192.497 90.077 192.639C90.5845 192.782 91.1221 192.777 91.6269 192.625L176.441 169.04C176.882 168.897 177.281 168.648 177.603 168.315C177.924 167.982 178.159 167.575 178.287 167.13C178.414 166.685 178.43 166.215 178.333 165.762C178.236 165.309 178.029 164.887 177.731 164.533Z" fill="#CCCCCC"/>
<path d="M172.696 41.8276L171.053 42.0938C170.603 42.1685 170.2 42.4182 169.934 42.7885L169.21 43.8004L162.683 60.1222C162.417 60.4954 162.31 60.9588 162.386 61.4106L163.151 66.061L160.26 149.067C160.333 149.496 160.564 149.882 160.907 150.151L173.58 167.103L173.876 167.338L174.514 167.838C174.841 168.09 175.247 168.22 175.661 168.202L176.738 168.151C176.982 168.139 177.222 168.075 177.44 167.964C177.658 167.853 177.85 167.697 178.003 167.506C178.158 167.316 178.27 167.096 178.332 166.86C178.394 166.623 178.404 166.377 178.363 166.136L174.686 43.2477C174.612 42.7964 174.361 42.393 173.989 42.1265C173.618 41.8599 173.155 41.7519 172.704 41.8262L172.696 41.8276Z" fill="#CCCCCC"/>
<path d="M169.945 48.277L164.163 65.891L161.927 136.244L170.927 144.244L169.945 48.277Z" fill="#6C63FF"/>
<path d="M55.1118 57.4146L47.7218 53.9511L40.4457 66.6117C40.4457 66.6117 20.9038 94.4984 20.6204 114.616C20.3369 134.735 23.805 140.717 23.805 140.717C23.805 140.717 15.3793 147.016 19.5922 150.867C23.805 154.717 33.1317 156.379 25.9684 158.048C18.805 159.717 20.6204 176.616 28.6204 179.616C36.6204 182.616 79.5846 182.59 79.5846 182.59C79.1983 181.28 79.1699 179.89 79.5022 178.565C79.8345 177.24 80.5154 176.029 81.4743 175.056C84.805 171.717 87.805 174.113 84.805 168.915C81.805 163.717 76.805 166.717 80.805 159.717C84.805 152.717 84.8036 150.625 84.8036 150.625C84.8036 150.625 82.6591 101.268 70.3767 84.4323L70.6383 83.9691C71.0463 78.4909 69.7799 73.0181 67.0071 68.2758C64.2343 63.5336 60.086 59.7459 55.1118 57.4146Z" fill="#6C63FF"/>
<path d="M64.0674 35.4352C64.8248 32.115 66.3098 29.0044 68.4151 26.3278C70.5204 23.6511 73.1936 21.475 76.2418 19.9566C79.29 18.4382 82.6372 17.6154 86.0419 17.5473C89.4467 17.4793 92.8241 18.1678 95.9305 19.5632C94.8544 16.3874 92.6767 13.702 89.7917 11.9931L72.3766 4.43228C63.7864 2.47671 50.1882 -3.07376 43.9836 2.24155C38.267 7.12443 41.0493 16.6826 35.7852 22.0356C30.0162 27.902 29.5262 34.8386 31.1623 38.8283C33.055 43.444 36.8415 49.7412 41.5669 51.1042C41.8128 49.4798 42.6231 47.9939 43.8556 46.9075C43.5149 48.4556 43.4852 50.0559 43.7683 51.6156L72.3766 74.4323C69.7047 72.1083 67.4283 66.1204 65.8605 59.3761C64.9325 55.384 59.3953 53.9829 63.886 47.2076C68.3766 40.4323 63.4576 38.1137 64.0674 35.4352Z" fill="#F6C649"/>
<path d="M53.3766 265.432H63.3766V344.432C63.3766 345.758 62.8498 347.03 61.9121 347.968C60.9744 348.905 59.7027 349.432 58.3766 349.432C57.0505 349.432 55.7787 348.905 54.841 347.968C53.9034 347.03 53.3766 345.758 53.3766 344.432V265.432Z" fill="#F2F2F2"/>
<path d="M24.3556 357.656L38.3482 339.097C42.7879 333.209 47.0449 327.086 51.7355 321.406C53.4021 319.388 55.3379 317.302 57.8029 316.692C58.774 316.443 59.797 316.487 60.7435 316.817C61.8617 317.208 62.8933 317.812 63.7809 318.596C65.8428 320.506 67.5727 322.745 68.8996 325.222C70.6464 328.256 72.2612 331.369 73.7649 334.53C77.172 341.731 79.9431 349.217 82.0463 356.901C83.0723 360.618 88.8625 359.04 87.832 355.306C85.7496 347.79 83.0687 340.452 79.8149 333.364C78.2304 329.903 76.5064 326.511 74.6429 323.188C73.0904 320.237 71.1341 317.517 68.8303 315.107C66.5002 312.644 63.3954 311.057 60.0351 310.609C56.4297 310.217 53.0858 311.841 50.4089 314.123C47.7197 316.416 45.6993 319.448 43.5874 322.249L36.1445 332.12L19.1749 354.627C18.1987 355.922 18.9682 357.982 20.2511 358.732C20.9425 359.115 21.7546 359.216 22.5189 359.016C23.2833 358.816 23.941 358.328 24.3556 357.656Z" fill="#F2F2F2"/>
<path d="M120.377 157.432C119.055 157.431 117.75 157.722 116.554 158.283C115.358 158.844 114.3 159.663 113.457 160.68L74.3766 147.432L63.139 111.692L45.3766 113.393L55.3766 167.432L114.629 173.487L114.634 173.361C115.747 174.283 117.064 174.924 118.476 175.229C119.888 175.534 121.353 175.494 122.746 175.114C124.14 174.734 125.421 174.024 126.483 173.044C127.544 172.064 128.353 170.843 128.843 169.484C129.333 168.125 129.489 166.668 129.297 165.237C129.105 163.805 128.571 162.44 127.741 161.258C126.911 160.077 125.808 159.112 124.526 158.446C123.244 157.78 121.821 157.432 120.377 157.432Z" fill="#FFB6B6"/>
<path d="M62.3584 89.6271L61.5058 89.4756C57.0537 88.6796 52.4668 89.6582 48.7273 92.2021C44.9878 94.746 42.3929 98.6529 41.4982 103.086C40.4502 108.333 39.3157 112.963 38.4666 113.676C36.3766 115.432 35.2427 117.109 37.8096 118.271C40.3765 119.432 35.3766 115.96 43.3766 120.196C51.3766 124.432 51.3766 119.432 58.3766 121.432C65.3766 123.432 69.4402 126.763 72.9084 123.598C76.3765 120.432 82.4911 122.291 80.4338 117.361C78.3765 112.432 76.3766 115.432 76.3766 106.432C76.3766 106.342 76.3763 106.253 76.376 106.163C76.3419 102.203 74.9208 98.3796 72.3597 95.3584C69.7987 92.3372 66.2598 90.3093 62.3584 89.6271Z" fill="#6C63FF"/>
<path d="M248.465 272.115L257.231 265.407L235.528 228.405L222.591 238.306L248.465 272.115Z" fill="#FFB6B6"/>
<path d="M241.01 268.301L254.374 256.748L258.966 262.747L279.316 261.753C280.322 261.704 281.316 261.978 282.155 262.534C282.994 263.09 283.633 263.899 283.979 264.844C284.325 265.789 284.36 266.82 284.078 267.786C283.797 268.752 283.214 269.603 282.415 270.215L265.743 282.974L258.328 279.238L261.748 286.032L255.462 290.842L241.01 268.301Z" fill="#2F2E41"/>
<path d="M249.892 246.147L237.347 259.881C228.622 253.951 201.191 231.196 179.668 218.504C165.759 210.284 155.02 204.016 155.02 204.016C155.02 204.016 153.266 206.01 150.474 209.138C140.255 220.608 116.166 247.268 114.284 245.979C111.895 244.343 108.759 246.469 108.579 251.499C108.445 255.166 102.004 257.156 98.5158 257.977C97.2059 258.278 96.3152 258.423 96.3152 258.423C95.6989 258.729 95.0826 259.035 94.4783 259.321C74.8619 268.581 53.6393 263.083 40.1253 249.434C35.281 244.581 31.5324 238.747 29.132 232.324C26.7316 225.9 25.735 219.038 26.2092 212.197L28.212 181.233L73.1669 184.071L79.4992 200.053L94.8694 190.064L128.519 168.197L140.807 160.209C140.807 160.209 140.513 160.137 141.016 158.824C142.514 158.209 144.064 157.73 145.647 157.392C145.915 157.33 146.182 157.279 146.448 157.237C161.477 154.513 171.317 166.88 171.317 166.88C171.317 166.88 233.95 219.855 236.559 220.569C239.166 221.293 240.233 225.722 240.442 226.77C240.647 227.758 244.295 233.604 246.208 233.68C252.176 233.931 249.892 246.147 249.892 246.147Z" fill="#2F2E41"/>
<path d="M47.4028 281.334C37.9928 261.194 -30.6271 280.664 -35.1371 236.654C-36.3771 223.844 -26.7772 212.774 -17.6572 203.694C47.2128 158.834 -79.4471 125.684 -30.2371 81.3942C-22.7638 77.0414 -14.828 73.5364 -6.57714 70.9442C4.81286 67.5942 13.3128 68.2142 19.7528 71.7142C20.6905 72.2261 21.5926 72.8007 22.4529 73.4342C50.6729 94.2842 33.6028 178.524 63.2228 204.684C74.5028 213.584 124.393 230.824 132.403 244.264C132.615 244.626 132.805 245 132.973 245.384C135.714 250.659 73.8853 265.029 78.9728 277.384C85.9729 294.384 46.7983 319.169 47.4028 281.334Z" fill="#F2F2F2"/>
<path d="M101.973 175.839C101.973 182.19 107.336 194.384 75.9727 194.384C44.6099 194.384 -11.6021 182.19 -11.6021 175.839C-11.6021 169.488 13.8226 164.339 45.1854 164.339C76.5482 164.339 101.973 169.488 101.973 175.839Z" fill="#F2F2F2"/>
</g>
<defs>
<clipPath id="clip0_25_4879">
<rect width="654.67" height="360.007" fill="white" transform="translate(-91)"/>
</clipPath>
</defs>
</svg>
