<svg width="28" height="21" viewBox="0 0 28 21" fill="none" xmlns="http://www.w3.org/2000/svg">
<path d="M15.4998 0C21.3081 0.967989 22.4733 4.27849 27.4896 9.9315C27.7889 10.2688 27.8325 10.765 27.5864 11.1429C24.2213 16.3105 20.7835 20.0394 15.4998 21C8.45436 21 5.00018 17.5 -0.000183105 10.5C6.00018 7.5 8.45436 0 15.4998 0ZM15.4998 17.5C19.3889 17.5 21.9999 14.364 21.9999 10.5C21.9999 6.636 19.3889 3.5 15.4998 3.5C11.6107 3.5 8.99994 6.636 8.99994 10.5C8.99994 14.364 11.6107 17.5 15.4998 17.5ZM15.4998 6.3C17.8389 6.3 19.7271 8.176 19.7271 10.5C19.7271 12.824 17.8389 14.7 15.4998 14.7C13.1607 14.7 11.2725 12.824 11.2725 10.5C11.2725 8.176 13.1607 6.3 15.4998 6.3Z" fill="#6759AE"/>
</svg>
