<svg width="28" height="21" viewBox="0 0 28 21" fill="none" xmlns="http://www.w3.org/2000/svg">
<path d="M15.4998 0C21.308 0.967989 22.4732 4.27849 27.4895 9.9315C27.7888 10.2688 27.8325 10.765 27.5864 11.1429C24.2213 16.3105 20.7834 20.0394 15.4998 21C8.4543 21 5.00012 17.5 -0.000244141 10.5C6.00012 7.5 8.4543 0 15.4998 0ZM15.4998 17.5C19.3888 17.5 21.9999 14.364 21.9999 10.5C21.9999 6.636 19.3888 3.5 15.4998 3.5C11.6107 3.5 8.99988 6.636 8.99988 10.5C8.99988 14.364 11.6107 17.5 15.4998 17.5ZM15.4998 6.3C17.8388 6.3 19.727 8.176 19.727 10.5C19.727 12.824 17.8388 14.7 15.4998 14.7C13.1607 14.7 11.2725 12.824 11.2725 10.5C11.2725 8.176 13.1607 6.3 15.4998 6.3Z" fill="#6C63FF"/>
</svg>
