<svg width="226" height="250" viewBox="0 0 226 250" fill="none" xmlns="http://www.w3.org/2000/svg">
<path d="M36.9739 79.0091C2.48677 117.4 14.5495 163.862 54.8104 203.031C95.0714 242.199 140.177 222.302 166.293 176.966C192.408 131.63 191.539 81.6038 153.022 44.6481C114.506 7.6924 71.461 40.6178 36.9739 79.0091Z" fill="#6C63FF"/>
<path fill-rule="evenodd" clip-rule="evenodd" d="M142.652 106.136C141.965 94.6114 138.305 81.545 127.535 75.8865C103.79 66.1484 72.5697 90.6717 70.9168 115.724C70.3406 124.3 75.0001 133.67 83.5149 136.055C85.408 138.618 88.271 140.183 91.0968 141.541C124.754 159.385 146.495 144.88 142.652 106.136Z" fill="#FFCCCC"/>
<path fill-rule="evenodd" clip-rule="evenodd" d="M150.32 99.9671C149.13 96.5913 147.874 93.2414 146.552 89.9174C145.265 86.6824 144.102 83.3775 142.503 80.2957C132.955 61.8897 115.592 61.8897 106.617 64.2947C101.963 62.2454 93.2449 62.8234 88.3985 64.6726C80.5526 67.6662 70.9883 79.4424 67.7183 84.7334C60.4984 96.4153 55.9927 111.964 60.7885 125.463C61.4153 127.227 62.2147 128.861 63.1148 130.436C62.5478 131.221 61.8953 131.965 61.1723 132.695C59.0241 134.867 56.8759 136.968 55.0201 139.417C53.1759 141.852 51.6471 144.44 50.5089 147.295C48.3629 152.678 48.2595 158.773 51.0968 163.909C53.5652 168.378 57.938 171.706 62.8646 172.023C63.1175 172.059 63.3708 172.092 63.6252 172.118C64.2779 173.217 65.0739 174.229 65.9823 175.11C68.7655 177.816 75.3999 179.203 79.184 179.292C79.378 179.452 79.5738 179.611 79.7696 179.768C82.0851 181.631 84.5147 183.509 87.1728 184.834C88.9733 185.733 91.334 186.483 93.2125 185.835C94.0646 186.416 95.4626 186.294 96.3075 185.818C97.6964 185.036 98.826 183.628 99.5132 182.186C101.18 178.686 100.779 174.857 100.351 171.118C99.8795 166.988 99.4262 162.856 98.9656 158.726C98.6048 155.496 98.2277 152.213 97.2667 149.102C96.7699 147.49 96.119 145.941 95.2777 144.485C95.2994 144.363 95.2958 144.24 95.2613 144.126C94.9857 143.21 94.4164 142.73 93.7419 142.108C93.6549 142.028 93.5678 141.947 93.4826 141.863C93.1454 141.471 92.7845 141.105 92.3983 140.796C92.2497 140.642 92.1028 140.487 91.9559 140.331C90.7357 139.025 89.5825 137.652 88.5581 136.181C87.5644 134.754 86.6669 133.264 85.8129 131.747C84.9444 130.203 84.3696 128.501 83.503 126.968C83.4286 126.837 83.24 126.811 83.1349 126.92C82.8665 127.204 82.6943 127.519 82.7269 127.85L82.5927 127.871C82.542 127.37 82.0905 126.963 81.4776 127.072C80.5602 127.235 79.8059 127.296 79.0117 126.985C79.1514 126.038 79.2801 125.09 79.407 124.139C79.6391 122.39 79.8549 120.635 80.0398 118.881C80.4877 118.99 80.9319 119.148 81.367 119.348C81.9871 119.631 82.5728 120.013 83.0732 120.482C83.5664 120.945 83.9073 121.569 84.5093 121.892C85.2019 122.26 86.0378 121.651 85.8347 120.85C85.4231 119.233 83.0932 118.306 81.6517 118.001C81.1567 117.895 80.6508 117.851 80.145 117.862C80.2592 116.735 80.3607 115.609 80.4441 114.48C80.484 113.947 80.5203 113.413 80.5547 112.878C81.6753 112.531 82.8756 112.427 84.0415 112.59C84.4259 112.904 84.8102 113.213 85.1819 113.526C86.3623 114.523 87.5372 115.525 88.6977 116.546C88.8028 116.637 88.9062 116.728 89.0114 116.82C89.7004 117.426 90.5598 116.826 90.4438 115.968C89.4973 108.939 93.7111 103.347 98.6447 99.0148C104.106 94.2178 114.035 93.6592 120.53 85.3502C123.521 85.9724 130.199 87.82 132.955 92.3075C136.814 98.596 136.31 104.231 136.603 111.364C136.897 118.503 137.644 125.949 136.058 132.988C134.594 139.479 130.633 145.024 124.486 147.574C124.334 147.637 124.18 147.698 124.025 147.757C120.847 148.982 117.378 149.328 114.035 148.684C110.334 147.968 107.245 146.238 104.166 144.109C103.988 143.988 103.729 144.237 103.863 144.418C107.921 149.914 115.892 151.75 122.214 150.299C122.51 150.231 122.803 150.157 123.095 150.075C121.681 154.231 121.966 158.793 123.808 162.839C124.916 165.274 126.606 167.38 128.663 169.042C130.932 170.873 133.746 172.352 135.32 174.921C136.761 177.276 136.333 179.922 133.865 181.282C133.244 181.627 133.004 182.74 133.621 183.23C133.856 183.415 134.092 183.604 134.333 183.789C135.715 184.854 139.51 186.856 140.124 186.93C145.582 187.591 149.252 183.496 151.604 178.666C154.365 172.996 153.647 166.087 150.605 160.688C148.164 156.356 143.357 152.087 145.268 146.605C145.95 144.646 147.345 142.977 148.699 141.469C150.244 139.751 151.905 138.143 153.386 136.364C154.858 134.598 156.164 132.677 156.893 130.461C157.957 127.222 157.428 123.72 156.628 120.487C154.914 113.547 152.69 106.698 150.32 99.9671Z" fill="#EF913C"/>
<path fill-rule="evenodd" clip-rule="evenodd" d="M121.579 116.44C122.954 117.294 125.049 119.284 123.57 121.4C121.829 123.266 119.322 121.127 118.086 120.159C116.941 119.409 115.654 121.338 116.717 122.213C125.644 128.962 129.266 116.663 122.275 115.437C121.505 115.302 121.219 116.176 121.579 116.44ZM109.156 100.163L109.497 100.102L109.673 100.072C110.697 99.8987 111.911 99.783 112.618 100.604C113.015 101.064 113.151 101.92 112.618 102.361C111.68 103.136 110.643 102.836 109.519 102.901C108.592 102.956 107.702 103.112 106.809 103.373C104.851 103.944 103.256 104.987 101.584 106.133C101.364 106.283 101.14 105.996 101.245 105.787C102.21 103.856 104.081 102.27 105.955 101.303C106.955 100.787 108.049 100.359 109.156 100.163ZM118.212 126.836C121.204 127.057 127.689 125.599 130.381 127.787C140.529 140.726 100.299 144.053 104.644 129.738C107.411 125.109 113.776 126.969 118.212 126.836ZM117.699 134.647C116.959 134.586 116.061 135.184 115.844 135.647C115.627 136.109 115.711 137.087 115.717 137.256C117.011 137.389 118.316 137.41 119.613 137.323C119.276 136.184 119.266 134.82 117.699 134.647ZM123.673 136.557C123.465 135.144 122.475 134.809 121.674 135.021C120.854 135.238 120.373 136.202 120.425 137.06C120.429 137.119 120.395 137.169 120.373 137.216C121.487 137.082 122.591 136.861 123.673 136.557ZM114.497 134.903C114.03 134.178 112.915 133.828 112.201 133.956C111.036 134.207 110.898 135.72 110.898 136.028C111.972 136.446 113.114 136.724 114.205 136.946C114.424 136.99 114.643 137.029 114.863 137.067L114.878 136.883C114.904 136.489 114.924 135.567 114.497 134.903ZM127.685 134.783C126.49 132.895 123.92 134.247 124.133 136.31C124.361 136.237 124.588 136.16 124.814 136.08C125.754 135.745 126.784 135.348 127.685 134.783ZM118.274 128.276C116.666 128.128 115.347 128.178 114.298 128.377L114.266 128.734C114.15 129.975 114 131.194 114.638 131.694C115.156 132.099 116.876 132.06 118.029 131.767C118.313 131.694 118.684 129.121 118.274 128.276ZM120.761 128.128C120.503 129.351 120.382 130.835 120.899 131.276C121.446 131.742 123.205 131.679 123.665 131.368C124.068 131.097 124.058 129.849 123.908 128.447C123.017 128.232 121.466 128.128 120.761 128.128ZM113.586 128.389L113.06 128.394L112.762 128.398C112.008 128.411 111.195 128.456 110.426 128.627C108.899 131.997 114.476 132.579 113.615 128.513L113.586 128.389ZM124.618 128.47L124.608 128.661C124.562 129.608 124.592 130.854 125.106 131.191C125.862 131.686 127.281 131.59 128.049 129.3C127.795 128.616 125.097 128.52 124.618 128.47ZM109.818 108.376C110.141 108.376 110.449 108.488 110.731 108.695C111.008 108.899 111.258 109.197 111.467 109.568C111.862 110.27 112.109 111.239 112.109 112.311C112.109 113.383 111.862 114.352 111.467 115.054C111.258 115.425 111.008 115.723 110.731 115.927C110.449 116.134 110.141 116.246 109.818 116.246C109.495 116.246 109.186 116.134 108.905 115.927C108.628 115.723 108.377 115.425 108.169 115.054C107.774 114.352 107.527 113.383 107.527 112.311C107.527 111.239 107.774 110.27 108.169 109.568C108.377 109.197 108.628 108.899 108.905 108.695C109.186 108.488 109.495 108.376 109.818 108.376ZM130.256 108.376C130.578 108.376 130.887 108.488 131.169 108.695C131.445 108.899 131.696 109.197 131.905 109.568C132.3 110.27 132.547 111.239 132.547 112.311C132.547 113.383 132.3 114.352 131.905 115.054C131.696 115.425 131.445 115.723 131.169 115.927C130.887 116.134 130.578 116.246 130.256 116.246C129.933 116.246 129.624 116.134 129.343 115.927C129.066 115.723 128.815 115.425 128.607 115.054C128.212 114.352 127.965 113.383 127.965 112.311C127.965 111.239 128.212 110.27 128.607 109.568C128.815 109.197 129.066 108.899 129.343 108.695C129.624 108.488 129.933 108.376 130.256 108.376ZM127.475 99.2981L127.737 99.3528L127.91 99.3904C130.733 100.01 134.311 101.232 135.632 104.031C135.683 104.435 135.629 104.521 135.585 104.578L135.57 104.597C135.534 104.645 135.505 104.711 135.333 104.766C135.286 104.755 135.238 104.743 135.189 104.73C134.571 104.564 134.082 104.336 133.608 104.1L133.095 103.842C132.5 103.543 131.899 103.256 131.262 103.044C129.903 102.591 128.506 102.273 127.087 102.102C126.779 102.065 126.483 101.959 126.249 101.778C126.027 101.605 125.858 101.366 125.78 101.049C125.68 100.638 125.709 100.327 125.925 99.9567C126.087 99.6784 126.319 99.4855 126.586 99.3748C126.858 99.2618 127.167 99.2352 127.475 99.2981Z" fill="#2F2E41"/>
</svg>
