<svg width="110" height="124" viewBox="0 0 110 124" fill="none" xmlns="http://www.w3.org/2000/svg">
<path fill-rule="evenodd" clip-rule="evenodd" d="M94.6524 43.1363C93.9652 31.6113 90.3055 18.545 79.5345 12.8864C55.7895 3.14832 24.5697 27.6716 22.9168 52.7241C22.3406 61.2997 27 70.6704 35.5149 73.0546C37.408 75.6176 40.271 77.1829 43.0968 78.5414C76.754 96.3854 98.4952 81.8802 94.6524 43.1363Z" fill="#FBF4E2"/>
<path fill-rule="evenodd" clip-rule="evenodd" d="M102.32 36.9671C101.13 33.5912 99.874 30.2413 98.5522 26.9173C97.2648 23.6823 96.102 20.3774 94.5034 17.2956C84.9552 -1.11038 67.5924 -1.11038 58.6172 1.29459C53.9628 -0.754638 45.2449 -0.176612 40.3985 1.67257C32.5526 4.66618 22.9883 16.4424 19.7183 21.7333C12.4984 33.4152 7.99268 48.9636 12.7885 62.4626C13.4153 64.2268 14.2147 65.8608 15.1148 67.4356C14.5478 68.2208 13.8953 68.9645 13.1723 69.6953C11.0241 71.8671 8.87587 73.9675 7.02009 76.4171C5.17592 78.8516 3.64706 81.4403 2.50894 84.2946C0.362879 89.6775 0.259528 95.7725 3.09676 100.909C5.56521 105.378 9.93802 108.706 14.8646 109.023C15.1175 109.059 15.3708 109.092 15.6252 109.118C16.2779 110.217 17.0739 111.228 17.9823 112.11C20.7655 114.816 27.3999 116.203 31.184 116.292C31.378 116.452 31.5738 116.611 31.7696 116.768C34.0851 118.63 36.5147 120.509 39.1728 121.834C40.9733 122.733 43.334 123.483 45.2125 122.835C46.0646 123.416 47.4626 123.294 48.3075 122.818C49.6964 122.036 50.826 120.628 51.5132 119.186C53.1795 115.686 52.7788 111.857 52.3509 108.118C51.8795 103.988 51.4262 99.8558 50.9656 95.7258C50.6048 92.4963 50.2277 89.2131 49.2667 86.1022C48.7699 84.4903 48.119 82.9413 47.2777 81.485C47.2994 81.3627 47.2958 81.2404 47.2613 81.1255C46.9857 80.2102 46.4164 79.7304 45.7419 79.1078C45.6549 79.0281 45.5678 78.9466 45.4826 78.8632C45.1454 78.4704 44.7845 78.1054 44.3983 77.796C44.2497 77.6422 44.1028 77.4866 43.9559 77.331C42.7357 76.0247 41.5825 74.6518 40.5581 73.1806C39.5644 71.7539 38.6669 70.2643 37.8129 68.7468C36.9444 67.2034 36.3696 65.5006 35.503 63.9684C35.4286 63.8368 35.24 63.8109 35.1349 63.9202C34.8665 64.2037 34.6943 64.5186 34.7269 64.8503L34.5927 64.8707C34.542 64.3704 34.0905 63.9628 33.4776 64.0721C32.5602 64.2352 31.8059 64.2963 31.0117 63.985C31.1514 63.0382 31.2801 62.0896 31.407 61.1391C31.6391 59.39 31.8549 57.6354 32.0398 55.8808C32.4877 55.9901 32.9319 56.1476 33.367 56.3477C33.9871 56.6311 34.5728 57.0128 35.0732 57.4816C35.5664 57.9448 35.9073 58.5692 36.5093 58.8916C37.2019 59.2603 38.0378 58.6507 37.8347 57.8503C37.4231 56.2328 35.0932 55.3064 33.6517 55.0007C33.1567 54.8951 32.6508 54.8506 32.145 54.8617C32.2592 53.7352 32.3607 52.6087 32.4441 51.4803C32.484 50.9467 32.5203 50.4131 32.5547 49.8776C33.6753 49.5311 34.8756 49.4274 36.0415 49.5904C36.4259 49.9035 36.8102 50.213 37.1819 50.5261C38.3623 51.5229 39.5372 52.5253 40.6977 53.5462C40.8028 53.637 40.9062 53.7278 41.0114 53.8204C41.7004 54.4263 42.5598 53.826 42.4438 52.9681C41.4973 45.9385 45.7111 40.3466 50.6447 36.0147C56.106 31.2178 66.0349 30.6591 72.5296 22.3501C75.5208 22.9723 82.1992 24.8199 84.9552 29.3075C88.8137 35.596 88.3096 41.2304 88.6033 48.3638C88.8971 55.5028 89.6441 62.9493 88.0576 69.9882C86.5943 76.4786 82.6326 82.0242 76.4859 84.5737C76.3336 84.6367 76.1795 84.6978 76.0254 84.7571C72.8469 85.9818 69.3783 86.3283 66.0349 85.6835C62.3342 84.9683 59.2445 83.2378 56.1658 81.1089C55.9881 80.9884 55.7288 81.2367 55.863 81.4183C59.9209 86.9138 67.8915 88.7499 74.214 87.2992C74.5096 87.2306 74.8033 87.1565 75.0952 87.075C73.681 91.2309 73.9656 95.7925 75.8078 99.8391C76.9157 102.274 78.6055 104.38 80.6635 106.042C82.9317 107.873 85.7458 109.352 87.3196 111.921C88.7611 114.276 88.3332 116.922 85.8654 118.282C85.2435 118.627 85.0042 119.74 85.6207 120.229C85.8564 120.415 86.0921 120.604 86.3332 120.789C87.7149 121.854 91.5098 123.855 92.1245 123.93C97.5821 124.591 101.252 120.496 103.604 115.666C106.365 109.996 105.647 103.087 102.605 97.688C100.164 93.3561 95.3574 89.0872 97.2684 83.6046C97.9502 81.6462 99.3445 79.9768 100.699 78.4686C102.244 76.751 103.905 75.1428 105.386 73.364C106.858 71.5983 108.164 69.6769 108.893 67.4609C109.957 64.2222 109.428 60.7203 108.628 57.4872C106.914 50.5465 104.69 43.6984 102.32 36.9671Z" fill="#F0C933"/>
<path fill-rule="evenodd" clip-rule="evenodd" d="M73.579 53.4403C74.9542 54.2938 77.0493 56.284 75.57 58.4001C73.8288 60.2657 71.3218 58.1266 70.0865 57.1591C68.941 56.4093 67.6539 58.3378 68.7168 59.2133C77.6437 65.9623 81.2664 53.6634 74.2746 52.4367C73.5047 52.3015 73.2188 53.1762 73.579 53.4403ZM61.1557 37.1629L61.4974 37.1018L61.6726 37.0715C62.6969 36.8986 63.9107 36.783 64.6181 37.6038C65.0149 38.0642 65.1515 38.92 64.6181 39.3607C63.68 40.1361 62.6428 39.8356 61.5186 39.9012C60.592 39.9555 59.7016 40.1121 58.8092 40.3726C56.8513 40.944 55.256 41.9872 53.5839 43.1327C53.3645 43.2829 53.1405 42.9964 53.2452 42.7868C54.2105 40.8561 56.0811 39.2701 57.9548 38.3034C58.9549 37.7874 60.0492 37.3593 61.1557 37.1629ZM70.2123 63.8356C73.2045 64.0574 79.6887 62.5988 82.3811 64.7867C92.5285 77.7264 52.2991 81.0532 56.6438 66.7375C59.411 62.1087 65.776 63.9691 70.2123 63.8356ZM69.6994 71.6471C68.9594 71.5856 68.0613 72.1841 67.844 72.6466C67.6268 73.1092 67.7108 74.0868 67.7173 74.2562C69.0111 74.3893 70.3161 74.4096 71.6135 74.3227C71.2765 73.1842 71.2655 71.8195 69.6994 71.6471ZM75.6731 73.5572C75.4651 72.144 74.4753 71.8093 73.6741 72.0214C72.8545 72.2383 72.3734 73.2017 72.4255 74.0594C72.4289 74.1186 72.3954 74.1688 72.3734 74.2164C73.4874 74.0819 74.5911 73.8607 75.6731 73.5572ZM66.4968 71.903C66.0302 71.1782 64.9155 70.8284 64.2015 70.9561C63.0356 71.2068 62.8975 72.7197 62.8975 73.028C63.9724 73.4464 65.1136 73.7242 66.2047 73.9455C66.4237 73.9897 66.6433 74.0293 66.8633 74.0667L66.8777 73.883C66.9041 73.4893 66.9239 72.5665 66.4968 71.903ZM79.6854 71.7834C78.49 69.8947 75.9203 71.247 76.1327 73.3102C76.361 73.2368 76.5883 73.16 76.8144 73.0795C77.7536 72.7452 78.7839 72.3478 79.6854 71.7834ZM70.2741 65.2759C68.6658 65.1281 67.3466 65.1779 66.2977 65.3765L66.2659 65.7343C66.1499 66.9748 66.0002 68.1944 66.6381 68.6935C67.1561 69.0989 68.8756 69.0602 70.0286 68.7668C70.3134 68.6935 70.6836 66.1207 70.2741 65.2759ZM72.7609 65.1281C72.503 66.3507 72.3819 67.8352 72.8995 68.276C73.4459 68.7415 75.2051 68.6784 75.6652 68.3683C76.0678 68.097 76.0576 66.8485 75.9081 65.4468C75.0172 65.2324 73.4658 65.1281 72.7609 65.1281ZM65.5865 65.3888L65.0599 65.3936L64.7618 65.3977C64.0081 65.4113 63.1949 65.4558 62.4263 65.627C60.8993 68.997 66.4758 69.5786 65.6145 65.5134L65.5865 65.3888ZM76.6176 65.4701L76.6079 65.661C76.562 66.6075 76.5924 67.8541 77.1059 68.1907C77.8616 68.6859 79.2807 68.5903 80.0493 66.2998C79.7949 65.6164 77.097 65.5201 76.6176 65.4701ZM61.8177 45.3762C62.1406 45.3762 62.4494 45.4882 62.7306 45.6953C63.0075 45.8991 63.2581 46.1966 63.4668 46.5676C63.8617 47.2697 64.1086 48.2391 64.1086 49.3109C64.1086 50.3829 63.8617 51.3523 63.4668 52.0544C63.2581 52.4254 63.0075 52.7229 62.7306 52.9267C62.4494 53.1337 62.1406 53.2456 61.8177 53.2456C61.4949 53.2456 61.1861 53.1337 60.9047 52.9267C60.628 52.7229 60.3774 52.4254 60.1686 52.0544C59.7737 51.3523 59.5268 50.3829 59.5268 49.3109C59.5268 48.2391 59.7737 47.2697 60.1686 46.5676C60.3774 46.1966 60.628 45.8991 60.9047 45.6953C61.1861 45.4882 61.4949 45.3762 61.8177 45.3762ZM82.2557 45.3762C82.5785 45.3762 82.8873 45.4882 83.1687 45.6953C83.4454 45.8991 83.696 46.1966 83.9047 46.5676C84.2996 47.2697 84.5466 48.2391 84.5466 49.3109C84.5466 50.3829 84.2996 51.3523 83.9047 52.0544C83.696 52.4254 83.4454 52.7229 83.1687 52.9267C82.8873 53.1337 82.5785 53.2456 82.2557 53.2456C81.9328 53.2456 81.624 53.1337 81.3427 52.9267C81.0659 52.7229 80.8153 52.4254 80.6066 52.0544C80.2117 51.3523 79.9648 50.3829 79.9648 49.3109C79.9648 48.2391 80.2117 47.2697 80.6066 46.5676C80.8153 46.1966 81.0659 45.8991 81.3427 45.6953C81.624 45.4882 81.9328 45.3762 82.2557 45.3762ZM79.4749 36.2981L79.7366 36.3528L79.9101 36.3903C82.7326 37.0103 86.3107 38.2324 87.6317 41.0307C87.6833 41.4346 87.6288 41.5212 87.5847 41.5777L87.57 41.5965C87.5338 41.6448 87.5046 41.7114 87.3333 41.7664C87.2856 41.7548 87.2377 41.7425 87.1891 41.7295C86.571 41.5641 86.0819 41.3363 85.6085 41.0998L85.0952 40.8416C84.4998 40.5434 83.8989 40.256 83.2623 40.0439C81.9035 39.5913 80.5058 39.2725 79.0865 39.1023C78.7788 39.0654 78.4827 38.9594 78.2489 38.7777C78.0271 38.6052 77.8576 38.3664 77.7804 38.049C77.6803 37.6382 77.709 37.3272 77.9248 36.9567C78.0872 36.6784 78.3194 36.4855 78.586 36.3747C78.8578 36.2618 79.1672 36.2352 79.4749 36.2981Z" fill="#6759AE"/>
</svg>
